<svg xmlns="http://www.w3.org/2000/svg" viewBox="0 0 90 75" width="90" height="75">
  <!-- FITTED BLAZER / JACKET (black) -->
  <!-- Left arm -->
  <path d="M 18 20 Q 6 30 4 68 L 16 70 Q 18 34 24 24 Z" fill="#2A2A2A"/>
  <!-- Right arm -->
  <path d="M 72 20 Q 84 30 86 68 L 74 70 Q 72 34 66 24 Z" fill="#2A2A2A"/>
  <!-- Left cuff -->
  <rect x="4" y="64" width="14" height="8" rx="2" fill="#444"/>
  <!-- Right cuff -->
  <rect x="72" y="64" width="14" height="8" rx="2" fill="#444"/>
  <!-- Main jacket body -->
  <path d="M 20 8 Q 10 14 12 20 L 18 20 L 24 24 L 24 72 L 66 72 L 66 24 L 72 20 L 78 20 Q 80 14 70 8 Q 55 4 45 4 Q 35 4 20 8 Z" fill="#2A2A2A"/>
  <!-- Left lapel -->
  <path d="M 20 8 L 24 24 L 38 16 Q 30 10 20 8 Z" fill="#3A3A3A"/>
  <!-- Right lapel -->
  <path d="M 70 8 L 66 24 L 52 16 Q 60 10 70 8 Z" fill="#3A3A3A"/>
  <!-- Collar -->
  <path d="M 38 16 L 45 22 L 52 16 Q 45 12 38 16 Z" fill="#FF4080"/>
  <!-- Button row -->
  <circle cx="45" cy="36" r="2" fill="#888"/>
  <circle cx="45" cy="46" r="2" fill="#888"/>
  <circle cx="45" cy="56" r="2" fill="#888"/>
  <!-- Pocket left -->
  <rect x="24" y="50" width="14" height="10" rx="2" fill="none" stroke="#444" stroke-width="1"/>
  <!-- Pocket right -->
  <rect x="52" y="50" width="14" height="10" rx="2" fill="none" stroke="#444" stroke-width="1"/>
</svg>
