<svg xmlns="http://www.w3.org/2000/svg" viewBox="0 0 55 30" width="55" height="30">
  <!-- TIARA / CROWN -->
  <!-- Base band -->
  <path d="M 4 22 Q 27 26 52 22 L 52 30 Q 27 34 4 30 Z" fill="#E8C030"/>
  <!-- Crown points -->
  <polygon points="4,22 8,4 14,18"   fill="#E8C030"/>
  <polygon points="18,20 22,6 28,20" fill="#E8C030"/>
  <polygon points="27,20 33,2 39,20" fill="#E8C030"/>
  <polygon points="38,20 44,6 48,20" fill="#E8C030"/>
  <polygon points="44,22 48,4 52,22" fill="#E8C030"/>
  <!-- Center gem (large) -->
  <ellipse cx="33" cy="12" rx="5" ry="6" fill="#FF80C0"/>
  <ellipse cx="33" cy="11" rx="3" ry="3" fill="#FFB0D8"/>
  <!-- Side gems -->
  <circle cx="20" cy="14" r="3.5" fill="#80C0FF"/>
  <circle cx="46" cy="14" r="3.5" fill="#80C0FF"/>
  <circle cx="10" cy="18" r="2.5" fill="#C080FF"/>
  <circle cx="52" cy="18" r="2.5" fill="#C080FF"/>
  <!-- Shine on gems -->
  <circle cx="31" cy="10" r="1.5" fill="white" opacity="0.7"/>
  <circle cx="18" cy="13" r="1.2" fill="white" opacity="0.7"/>
  <circle cx="44" cy="13" r="1.2" fill="white" opacity="0.7"/>
</svg>
